<svg xmlns="http://www.w3.org/2000/svg">
  <symbol xmlns="http://www.w3.org/2000/svg" width="62" height="61" viewBox="0 0 62 61" id="bubble">
    <path d="M390,1059c-5.963,0-11,3.21-11,7a0.5,0.5,0,0,0,1,0c0-3.2,4.673-6,10-6A0.5,0.5,0,0,0,390,1059Zm0-5c-8.837,0-16,5.37-16,12,0,4.13,2.779,7.77,7.008,9.93,0,0.02-.008.04-0.008,0.07,0,1.79-1.339,3.72-1.928,4.74h0a0.9,0.9,0,0,0-.074.35,0.909,0.909,0,0,0,.906.91,1.235,1.235,0,0,1,.255-0.01c3.125-.51,6.069-3.39,6.753-4.22A20.768,20.768,0,0,0,390,1078c8.836,0,16-5.37,16-12S398.836,1054,390,1054Zm0,22a19.02,19.02,0,0,1-2.8-.21,2.845,2.845,0,0,0-.29-0.02,2.02,2.02,0,0,0-1.546.73,13.306,13.306,0,0,1-3.085,2.54,7.8,7.8,0,0,0,.716-2.93c0.006-.06.009-0.13,0.009-0.18a2.013,2.013,0,0,0-1.09-1.79c-3.706-1.89-5.918-4.93-5.918-8.14,0-5.51,6.28-10,14-10s14,4.49,14,10S397.72,1076,390,1076Z" transform="translate(-374 -1054)"/>
  </symbol>
  <symbol xmlns="http://www.w3.org/2000/svg" width="61" height="61" viewBox="0 0 61 61" id="heart">
    <path d="M723.192,933.792A9.632,9.632,0,0,0,710,933.505a9.632,9.632,0,0,0-13.192.287,9.4,9.4,0,0,0,0,13.4c1.07,1.057,11.053,10.93,11.053,10.93a3.048,3.048,0,0,0,4.278,0l11.053-10.93A9.4,9.4,0,0,0,723.192,933.792Zm-1.427,11.989-11.052,10.93a1.016,1.016,0,0,1-1.425,0l-11.053-10.93a7.429,7.429,0,0,1,0-10.579,7.6,7.6,0,0,1,10.409-.222L710,936.2l1.356-1.219a7.6,7.6,0,0,1,10.409.222A7.427,7.427,0,0,1,721.765,945.781Zm-18.513-9.755h0A4.247,4.247,0,0,0,699,940.271h0a0.5,0.5,0,0,0,1,0h0a3.248,3.248,0,0,1,3.249-3.245h0A0.5,0.5,0,1,0,703.252,936.026Z" transform="translate(-694 -931)"/>
  </symbol>
  <symbol xmlns="http://www.w3.org/2000/svg" width="62" height="61" viewBox="0 0 62 61" id="lightbulb">
    <path d="M390,928a11,11,0,0,0-11,11c0,4.031,3.689,8.3,5.031,12.055,2,5.6,1.782,8.945,5.969,8.945,4.25,0,3.965-3.334,5.969-8.922C397.316,947.319,401,943,401,939A11,11,0,0,0,390,928Zm2.593,27.176-4.959.62c-0.177-.513-0.367-1.112-0.6-1.893,0-.01-0.007-0.022-0.009-0.032l6.189-.773c-0.088.3-.183,0.606-0.264,0.884C392.821,954.431,392.7,954.821,392.593,955.176Zm-5.857-2.268q-0.271-.9-0.615-1.908h7.766c-0.122.36-.245,0.719-0.352,1.059ZM390,958a1.737,1.737,0,0,1-2-1.25l4.238-.53C391.628,957.873,391.181,958,390,958Zm4.672-9h-9.333c-0.5-1.079-1.1-2.16-1.686-3.217-1.3-2.335-2.653-4.75-2.653-6.783a9,9,0,0,1,18,0c0,2.018-1.35,4.446-2.655,6.795C395.76,946.849,395.167,947.926,394.672,949ZM390,933a6.006,6.006,0,0,0-6,6,0.5,0.5,0,0,0,1,0,5.006,5.006,0,0,1,5-5A0.5,0.5,0,0,0,390,933Z" transform="translate(-379 -928)"/>
  </symbol>
  <symbol xmlns="http://www.w3.org/2000/svg" width="62" height="61" viewBox="0 0 62 61" id="pen">
    <path d="M84.4,931.58A8.546,8.546,0,0,0,78.449,929a6.541,6.541,0,0,0-4.669,1.877l-4.867,4.9c-0.015.014-.032,0.024-0.047,0.038s-0.013.019-.021,0.027l0,0-10.33,10.408a4.02,4.02,0,0,0-1.013,1.705l-2.349,8.508A6.849,6.849,0,0,0,55,957.5a3.5,3.5,0,0,0,3.5,3.5,7.142,7.142,0,0,0,1.157-.187l8.478-2.229a4.021,4.021,0,0,0,1.705-1.016l15.263-15.382C87.884,939.406,87.571,934.75,84.4,931.58ZM71.015,952.8a8.148,8.148,0,0,0-.719-2.628l9.454-9.453a4.876,4.876,0,0,1-.986,5c-0.008.008-.017,0.012-0.025,0.02l0.013,0.013-7.728,7.789C71.025,953.293,71.037,953.049,71.015,952.8Zm-1.221-3.54a9.044,9.044,0,0,0-1.322-1.728,8.953,8.953,0,0,0-2.044-1.493L75.96,936.5a6.9,6.9,0,0,1,3.378,3.208Zm-4.307-3.693a7.979,7.979,0,0,0-2.868-.6l7.7-7.762a4.8,4.8,0,0,1,4.588-1.061Zm-6.318,13.31a4.739,4.739,0,0,1-.679.127A1.5,1.5,0,0,1,57,957.5a5.1,5.1,0,0,1,.1-0.563l1.053-3.814a4.74,4.74,0,0,1,4.733,4.774Zm4.706-1.236A5.584,5.584,0,0,0,62.2,953.8a5.692,5.692,0,0,0-3.766-1.7l1-3.608a1.975,1.975,0,0,1,.391-0.684c2.006-1.436,5.091-1.012,7.234,1.133,2.267,2.266,2.617,5.586.871,7.568a2.13,2.13,0,0,1-.359.157Zm19.818-16.864-1.685,1.7c0-.226.027-0.443,0.007-0.674a8.834,8.834,0,0,0-8.472-7.84l1.657-1.67A4.547,4.547,0,0,1,78.449,931a6.911,6.911,0,0,1,6.539,6.163A4.583,4.583,0,0,1,83.692,940.773Z" transform="translate(-55 -929)"/>
  </symbol>
  <symbol xmlns="http://www.w3.org/2000/svg" width="62" height="61" viewBox="0 0 62 61" id="phone">
    <path d="M79,1052H63a3,3,0,0,0-3,3v26a3,3,0,0,0,3,3H79a3,3,0,0,0,3-3v-26A3,3,0,0,0,79,1052Zm1,29a1,1,0,0,1-1,1H63a1,1,0,0,1-1-1v-2H80v2Zm0-3H62v-20H80v20Zm0-21H62v-2a1,1,0,0,1,1-1H79a1,1,0,0,1,1,1v2Zm-7-1.5a0.5,0.5,0,0,1-.5.5h-3a0.5,0.5,0,0,1-.5-0.5h0a0.5,0.5,0,0,1,.5-0.5h3a0.5,0.5,0,0,1,.5.5h0Zm-1,25a0.5,0.5,0,0,1-.5.5h-1a0.5,0.5,0,0,1-.5-0.5h0a0.5,0.5,0,0,1,.5-0.5h1a0.5,0.5,0,0,1,.5.5h0Z" transform="translate(-60 -1052)"/>
  </symbol>
  <symbol xmlns="http://www.w3.org/2000/svg" width="62" height="61" viewBox="0 0 62 61" id="star">
    <path d="M725.881,1063.56a2.288,2.288,0,0,0-1.843-1.51l-8.326-1.24-3.62-7.52a2.341,2.341,0,0,0-4.184,0l-3.619,7.52-8.327,1.24a2.282,2.282,0,0,0-1.842,1.51,2.194,2.194,0,0,0,.537,2.28l6.1,6.09-1.415,8.46a2.222,2.222,0,0,0,.948,2.2,2.373,2.373,0,0,0,1.331.41,2.335,2.335,0,0,0,1.118-.28l7.259-3.91,7.26,3.91a2.331,2.331,0,0,0,1.117.28,2.38,2.38,0,0,0,1.332-.41,2.225,2.225,0,0,0,.948-2.2l-1.416-8.46,6.1-6.09A2.2,2.2,0,0,0,725.881,1063.56Zm-8.293,6.8a2.22,2.22,0,0,0-.626,1.94l1.415,8.45-7.259-3.91a2.37,2.37,0,0,0-2.235,0l-7.26,3.91,1.416-8.45a2.22,2.22,0,0,0-.626-1.94l-6.1-6.09,8.326-1.24a2.3,2.3,0,0,0,1.744-1.27l3.619-7.51,3.62,7.51a2.3,2.3,0,0,0,1.742,1.27l8.327,1.24Z" transform="translate(-694 -1052)"/>
  </symbol>
</svg>